<svg width="118" height="32" viewBox="0 0 118 32" fill="none" xmlns="http://www.w3.org/2000/svg">
<g clip-path="url(#clip0_6_11271)">
<path d="M86.5391 2.91698C86.5391 1.70249 87.5486 0.71736 88.7939 0.71736H114.797C116.042 0.71736 117.052 1.70249 117.052 2.91698V29.2242C117.052 30.4391 116.042 31.4238 114.797 31.4238H88.7939C87.5486 31.4238 86.5391 30.4391 86.5391 29.2242V2.91698Z" fill="#1569BF"/>
<path fill-rule="evenodd" clip-rule="evenodd" d="M1.125 26.4395H13.8589V22.2589H5.73325V6.30889H1.125V26.4395Z" fill="#1569BF"/>
<path fill-rule="evenodd" clip-rule="evenodd" d="M20.303 26.4395V12.5742H15.6944V26.4395H20.303ZM17.9987 10.681C19.6058 10.681 20.6061 9.61632 20.6061 8.28489C20.5762 6.92475 19.6058 5.88997 18.0293 5.88997C16.4526 5.88997 15.4219 6.92475 15.4219 8.28489C15.4219 9.61632 16.422 10.681 17.9686 10.681H17.9987Z" fill="#1569BF"/>
<path fill-rule="evenodd" clip-rule="evenodd" d="M22.4453 26.4395H27.054V18.6963C27.054 18.2819 27.084 17.8679 27.2059 17.5716C27.5388 16.7441 28.2971 15.8865 29.5703 15.8865C31.2381 15.8865 31.9053 17.1585 31.9053 19.0212V26.4395H36.5135V18.4891C36.5135 14.2301 34.2396 12.2484 31.2075 12.2484C28.7214 12.2484 27.6298 13.6381 27.0233 14.5846H27.0541V12.5742H22.4454C22.5059 13.8752 22.4453 26.4395 22.4453 26.4395Z" fill="#1569BF"/>
<path fill-rule="evenodd" clip-rule="evenodd" d="M43.0151 6.30889H38.4062V26.4395H43.0151V21.9442L44.1669 20.4942L47.775 26.4395H53.4445L47.381 17.8326L52.6868 11.9768H47.1385C47.1385 11.9768 43.3487 17.2159 43.0151 17.8371V6.30889Z" fill="#1569BF"/>
<path fill-rule="evenodd" clip-rule="evenodd" d="M65.7673 20.6554C65.8278 20.2992 65.919 19.6161 65.919 18.8439C65.919 15.2595 64.0995 11.621 59.3093 11.621C54.1851 11.621 51.8203 15.6735 51.8203 19.349C51.8203 23.8951 54.7006 26.7344 59.7336 26.7344C61.7348 26.7344 63.584 26.439 65.1002 25.8178L64.4936 22.7742C63.2506 23.1865 61.9772 23.3925 60.4008 23.3925C58.2481 23.3925 56.3685 22.5091 56.2166 20.6258L65.7673 20.6554ZM56.1866 17.5375C56.3078 16.3542 57.0961 14.6088 59.0669 14.6088C61.1584 14.6088 61.6438 16.4728 61.6438 17.5375H56.1866Z" fill="#1569BF"/>
<path fill-rule="evenodd" clip-rule="evenodd" d="M77.2996 6.30774V13.2763H77.2391C76.572 12.301 75.177 11.6503 73.3281 11.6503C69.7804 11.6503 66.6577 14.4895 66.6877 19.3397C66.6877 23.8358 69.5075 26.7637 73.0245 26.7637C74.9346 26.7637 76.7537 25.9353 77.6632 24.338H77.7544L77.9363 26.4383H82.0297C81.969 25.4622 81.9079 23.7763 81.9079 22.1203V6.30774H77.2996ZM77.2996 20.0204C77.2996 20.3749 77.2693 20.7302 77.2085 21.0256C76.936 22.2976 75.8441 23.1846 74.5105 23.1846C72.6002 23.1846 71.3571 21.6468 71.3571 19.2215C71.3571 16.9444 72.4185 15.1107 74.5405 15.1107C75.9653 15.1107 76.9661 16.0864 77.2391 17.2989C77.2996 17.5656 77.2996 17.8614 77.2996 18.1273V20.0204Z" fill="#1569BF"/>
<path fill-rule="evenodd" clip-rule="evenodd" d="M95.7882 26.4219V12.5562H91.1795V26.4219H95.7882ZM93.53 10.999C95.1372 10.999 96.1375 9.93429 96.1375 8.60369C96.1075 7.24313 95.1372 6.20795 93.5605 6.20795C91.984 6.20795 90.9533 7.24313 90.9533 8.60369C90.9533 9.93429 91.9534 10.999 93.5 10.999H93.53Z" fill="white"/>
<path fill-rule="evenodd" clip-rule="evenodd" d="M98.3438 26.4219H102.952V18.6787C102.952 18.2643 102.982 17.8503 103.104 17.5541C103.437 16.7261 104.196 15.8685 105.469 15.8685C107.136 15.8685 107.803 17.1401 107.803 19.0041V26.4219H112.412V18.4715C112.412 14.2126 110.138 12.2308 107.106 12.2308C104.62 12.2308 103.528 13.6205 102.922 14.5671H102.953V12.5562H98.3439C98.4044 13.8572 98.3438 26.4219 98.3438 26.4219Z" fill="white"/>
</g>
<defs>
<clipPath id="clip0_6_11271">
<rect width="117.191" height="32" fill="white" transform="translate(0.40625)"/>
</clipPath>
</defs>
</svg>
