<svg width="72" height="72" viewBox="0 0 72 72" fill="none" xmlns="http://www.w3.org/2000/svg">
<circle cx="36" cy="36" r="36" fill="#1DA1F2"/>
<path d="M54.6683 27.285C54.6951 27.6596 54.6951 28.0342 54.6951 28.4088C54.6951 39.8333 45.9996 52.9971 30.1067 52.9971C25.2104 52.9971 20.662 51.579 16.8359 49.1176C17.5316 49.1978 18.2004 49.2246 18.9229 49.2246C22.9629 49.2246 26.682 47.8601 29.6519 45.5324C25.8526 45.4521 22.6686 42.9638 21.5716 39.5391C22.1068 39.6193 22.6419 39.6728 23.2038 39.6728C23.9797 39.6728 24.7556 39.5658 25.478 39.3786C21.5182 38.5758 18.5482 35.0976 18.5482 30.897V30.79C19.6987 31.4322 21.0366 31.8335 22.4545 31.8869C20.1268 30.3351 18.6018 27.6863 18.6018 24.6897C18.6018 23.0844 19.0298 21.6128 19.779 20.3285C24.0331 25.5726 30.4277 28.9973 37.5982 29.3719C37.4644 28.7298 37.3841 28.061 37.3841 27.3921C37.3841 22.6295 41.2369 18.75 46.0262 18.75C48.5144 18.75 50.7619 19.7935 52.3405 21.4791C54.2936 21.1045 56.1665 20.3821 57.8254 19.3921C57.1832 21.3989 55.8187 23.0845 54.0261 24.1546C55.7652 23.9674 57.4508 23.4857 59.0026 22.8169C57.8256 24.5292 56.3539 26.0542 54.6683 27.285Z" fill="white"/>
</svg>
